<?xml version="1.0" standalone="no"?>
<!DOCTYPE svg PUBLIC "-//W3C//DTD SVG 20010904//EN"
 "http://www.w3.org/TR/2001/REC-SVG-20010904/DTD/svg10.dtd">
<svg version="1.0" xmlns="http://www.w3.org/2000/svg"
 width="700.000000pt" height="700.000000pt" viewBox="0 0 700.000000 700.000000"
 preserveAspectRatio="xMidYMid meet">
<metadata>
Created by potrace 1.11, written by Peter Selinger 2001-2013
</metadata>
<g transform="translate(0.000000,700.000000) scale(0.100000,-0.100000)"
fill="#000000" stroke="none">
<path d="M3545 5773 c-37 -3 -189 -20 -260 -29 -53 -7 -220 -53 -311 -85 -464
-163 -843 -498 -1033 -911 -21 -46 -44 -100 -50 -121 -9 -25 -20 -38 -34 -41
-12 -2 -73 -14 -135 -26 -491 -92 -919 -420 -1127 -863 -97 -206 -139 -391
-140 -612 0 -126 7 -235 19 -290 34 -156 68 -257 126 -376 83 -169 166 -285
295 -414 130 -131 258 -222 428 -307 94 -47 265 -109 333 -122 267 -48 92 -45
2114 -45 1796 0 1869 0 1975 19 263 46 480 157 665 340 241 238 366 538 367
879 1 346 -121 637 -372 887 -216 214 -489 334 -795 351 -58 3 -106 6 -106 7
-1 0 -4 62 -7 136 -4 74 -9 146 -12 160 -3 14 -10 51 -15 82 -72 392 -338 786
-705 1041 -339 235 -806 365 -1220 340z m299 -448 c569 -68 1048 -456 1180
-955 42 -159 51 -345 22 -480 -24 -116 -14 -175 40 -238 61 -71 80 -76 332
-79 243 -2 333 -17 452 -71 207 -94 364 -271 434 -486 121 -374 -53 -787 -403
-958 -198 -96 7 -88 -2146 -85 -1785 2 -1894 4 -1965 21 -237 57 -420 156
-581 316 -96 96 -151 172 -214 298 -73 146 -102 270 -104 447 -8 501 351 940
874 1069 72 18 131 25 244 31 151 8 212 57 256 209 66 229 161 390 328 556
222 222 541 370 872 406 33 4 61 8 63 9 5 4 266 -4 316 -10z"/>
</g>
</svg>
